<svg viewBox="0 0 32 32" xmlns="http://www.w3.org/2000/svg">
  <!-- Background -->
  <rect width="32" height="32" rx="6" fill="url(#bgGradient)"/>
  
  <!-- Definitions -->
  <defs>
    <!-- Background gradient -->
    <linearGradient id="bgGradient" x1="0%" y1="0%" x2="100%" y2="100%">
      <stop offset="0%" style="stop-color:#334155"/>
      <stop offset="50%" style="stop-color:#1e293b"/>
      <stop offset="100%" style="stop-color:#0f172a"/>
    </linearGradient>
    
    <!-- Glow effect -->
    <filter id="glow">
      <feGaussianBlur stdDeviation="1" result="coloredBlur"/>
      <feMerge> 
        <feMergeNode in="coloredBlur"/>
        <feMergeNode in="SourceGraphic"/>
      </feMerge>
    </filter>
  </defs>
  
  <!-- Border -->
  <rect x="1" y="1" width="30" height="30" rx="5" fill="none" stroke="#fbbf24" stroke-width="0.5" opacity="0.3"/>
  
  <!-- Dollar sign -->
  <g transform="translate(16,16)" filter="url(#glow)">
    <!-- Vertical line -->
    <line x1="0" y1="-12" x2="0" y2="12" stroke="#fbbf24" stroke-width="1.5" stroke-linecap="round"/>
    
    <!-- Top curve -->
    <path d="M-4,-6 Q-6,-8 -2,-8 L4,-8 Q6,-8 4,-6 Q2,-4 -2,-4" 
          fill="none" stroke="#fbbf24" stroke-width="1.5" stroke-linecap="round"/>
    
    <!-- Bottom curve -->
    <path d="M4,6 Q6,8 2,8 L-4,8 Q-6,8 -4,6 Q-2,4 2,4" 
          fill="none" stroke="#fbbf24" stroke-width="1.5" stroke-linecap="round"/>
  </g>
  
  <!-- Learning arc -->
  <path d="M8,8 Q16,4 24,8" fill="none" stroke="#fbbf24" stroke-width="1" opacity="0.6" stroke-linecap="round"/>
  
  <!-- Subtle glow background -->
  <rect x="2" y="2" width="28" height="28" rx="4" fill="url(#innerGlow)" opacity="0.1"/>
  
  <defs>
    <radialGradient id="innerGlow" cx="50%" cy="30%">
      <stop offset="0%" style="stop-color:#fbbf24"/>
      <stop offset="100%" style="stop-color:transparent"/>
    </radialGradient>
  </defs>
</svg>
